<?xml version="1.0" encoding="utf-8"?>
<!-- Generator: Adobe Illustrator 21.1.0, SVG Export Plug-In . SVG Version: 6.00 Build 0)  -->
<svg version="1.1" id="Layer_1" xmlns="http://www.w3.org/2000/svg" xmlns:xlink="http://www.w3.org/1999/xlink" x="0px" y="0px"
	 viewBox="0 0 1342.4 742.8" style="enable-background:new 0 0 1342.4 742.8;" xml:space="preserve">
<style type="text/css">
	.st0{opacity:0.35;fill:#85C6EF;enable-background:new    ;}
	.st1{opacity:0.35;fill:#EA9453;enable-background:new    ;}
	.st2{opacity:0.35;fill:#F1E144;enable-background:new    ;}
	.st3{opacity:0.35;fill:#3EA3CE;enable-background:new    ;}
	.st4{fill:#FFFFFF;}
</style>
<circle class="st0" cx="721.4" cy="371.4" r="371.4"/>
<circle class="st1" cx="181.5" cy="383.9" r="181.5"/>
<circle class="st2" cx="386.5" cy="383.9" r="181.5"/>
<circle class="st3" cx="568" cy="383.9" r="181.5"/>
<g>
	<path d="M721.4,239.8c0-8.2,3-15,8.9-20.2c5.9-5.3,13.7-7.9,23.1-7.9c9.5,0,17.2,2.6,23.1,7.9s8.9,12,8.9,20.2s-3,15-8.9,20.2
		c-5.9,5.3-13.7,7.9-23.1,7.9c-9.5,0-17.2-2.6-23.1-7.9C724.4,254.8,721.4,248,721.4,239.8z M782.8,473h-57.9V287.6h57.9V473z"/>
	<path d="M1029.4,473h-59.8l-88.4-155.3V473H821V223.5h60.2l88.3,155.3V223.5h60V473H1029.4z"/>
	<path d="M1134.9,426.8h119.3v46.3h-194.3v-31.7L1178.8,270h-119.6v-46.4H1253v30.8L1134.9,426.8z"/>
	<path d="M1278.4,239.8c0-8.2,3-15,8.9-20.2c5.9-5.3,13.7-7.9,23.1-7.9c9.5,0,17.2,2.6,23.1,7.9c5.9,5.3,8.9,12,8.9,20.2
		s-3,15-8.9,20.2c-5.9,5.3-13.7,7.9-23.1,7.9c-9.5,0-17.2-2.6-23.1-7.9C1281.3,254.8,1278.4,248,1278.4,239.8z M1339.7,473h-57.9
		V287.6h57.9V473z"/>
</g>
<g>
	<g>
		<path class="st4" d="M192.5,473c-1.8-3.5-3.4-9.3-4.8-17.3c-13.2,13.8-29.4,20.7-48.6,20.7c-18.6,0-33.8-5.3-45.5-15.9
			S76,436.8,76,421.1c0-19.7,7.3-34.9,22-45.4s35.6-15.8,62.9-15.8h25.4v-12.1c0-9.6-2.7-17.3-8-23c-5.4-5.8-13.5-8.6-24.5-8.6
			c-9.5,0-17.2,2.4-23.3,7.1c-6,4.7-9.1,10.8-9.1,18H79.8c0-10.2,3.4-19.6,10.1-28.5c6.7-8.8,15.9-15.8,27.5-20.8s24.5-7.5,38.8-7.5
			c21.7,0,38.9,5.4,51.8,16.3s19.5,26.2,19.8,45.9v83.5c0,16.7,2.3,29.9,7,39.9v2.9L192.5,473L192.5,473z M146.8,443.1
			c8.2,0,15.9-2,23.2-6c7.2-4,12.7-9.4,16.3-16.1v-34.9h-22.4c-15.4,0-27,2.7-34.7,8c-7.8,5.4-11.6,12.9-11.6,22.8
			c0,8,2.7,14.3,8,19.1C130.8,440.7,137.9,443.1,146.8,443.1z"/>
		<path class="st4" d="M383.6,454.9c-12.2,14.4-29.5,21.6-52,21.6c-20.1,0-35.3-5.9-45.6-17.6s-15.5-28.7-15.5-51V288h41.6v119.4
			c0,23.5,9.8,35.2,29.3,35.2c20.2,0,33.8-7.2,40.9-21.7V288h41.6v185.1h-39.2L383.6,454.9z"/>
		<path class="st4" d="M518.3,242.9v45H551v30.8h-32.7v103.4c0,7.1,1.4,12.2,4.2,15.3c2.8,3.1,7.8,4.7,15,4.7
			c4.8,0,9.6-0.6,14.5-1.7v32.2c-9.5,2.6-18.6,3.9-27.4,3.9c-31.9,0-47.9-17.6-47.9-52.9V318.7h-30.5v-30.8h30.5v-45L518.3,242.9
			L518.3,242.9z"/>
		<path class="st4" d="M569.7,378.8c0-18.1,3.6-34.5,10.8-49s17.3-25.7,30.3-33.5s27.9-11.7,44.8-11.7c25,0,45.3,8,60.8,24.1
			c15.6,16.1,24,37.4,25.2,64l0.2,9.8c0,18.3-3.5,34.6-10.5,48.9c-7,14.4-17.1,25.5-30.1,33.4c-13.1,7.9-28.1,11.8-45.3,11.8
			c-26.1,0-47-8.7-62.7-26.1s-23.5-40.6-23.5-69.5L569.7,378.8L569.7,378.8z M611.3,382.4c0,19,3.9,34,11.8,44.7
			s18.8,16.2,32.8,16.2s24.9-5.5,32.8-16.4c7.8-10.9,11.7-27,11.7-48.1c0-18.7-4-33.5-12.1-44.5c-8-11-19-16.4-32.8-16.4
			c-13.6,0-24.4,5.4-32.3,16.2C615.3,344.8,611.3,360.9,611.3,382.4z"/>
	</g>
</g>
</svg>
